<svg xmlns="http://www.w3.org/2000/svg" viewBox="0 0 248.24 42.66"><defs><style>.cls-1{fill:#78e6d0;}</style></defs><title>logo</title><g id="Layer_2" data-name="Layer 2"><g id="Layer_1-2" data-name="Layer 1"><polygon class="cls-1" points="65.8 10.68 64.11 9.78 58.8 13.17 58.8 5.23 68.59 8.74 74.96 4.4 63.26 0.66 55.94 4.4 57.41 4.84 52.8 7.65 52.8 18 58.13 14.11 63.37 16.76 65.8 15.28 65.8 34.43 57.24 30.88 58.8 29.82 58.8 17.8 52.8 21.25 52.8 32.47 49.49 34.42 61.47 39.4 67.75 35.39 66.86 35.13 70.8 32.19 70.8 13.42 65.8 10.61 65.8 10.68"/><path class="cls-1" d="M94.8,7.71,99,5,87.41,1.21,80.13,5l1.44.53L75.8,8.8V32.69l-3.44,1.82,12.47,4.34,3.34-2.21,3.8,2,6.34-4-5.46-2.79,2-1.42Zm-5,1.08v25l-8.62-2.63.62-.75V5.57l8.35,2.76Z"/><path class="cls-1" d="M44.8,7.71,48.58,5,36.77,1.21,29.39,5l1.31.53L24.8,8.8V32.69l-3.37,1.82,12.51,4.34,3.36-2.21,3.81,2,6.35-4-5-2.79,2.39-1.42Zm-6,1.08v25l-8.62-2.63.62-.75V5.57l8.35,2.76Z"/><polygon class="cls-1" points="9.8 29.58 9.8 6.28 17.56 9.09 24.72 4.21 11.57 0 3.33 4.21 7.63 5.63 3.8 8.01 3.8 32.49 0 34.31 12.29 38.65 18.73 34.31 7.89 30.74 9.8 29.58"/><polygon class="cls-1" points="229.8 31.01 229.8 5.32 232.61 3.78 226.68 0.62 220.02 4.9 225.37 7.5 224.8 8.02 224.8 32.48 220.38 35.1 226.38 38.27 233.06 33.99 228.79 32 229.8 31.01"/><polygon class="cls-1" points="243.8 8.02 243.11 7.5 248.24 4.9 241.54 0.62 235.39 3.78 237.8 5.32 237.8 31.01 239.27 32 235.44 33.99 242.2 38.27 248.14 35.1 243.8 32.48 243.8 8.02"/><polygon class="cls-1" points="134.8 8.23 139.64 10.65 147.91 5.46 140.51 1.62 137 3.86 132.65 1.61 126.32 5.62 131.44 8.11 129.8 9.24 129.8 33.52 126.42 35.48 132.02 38.45 138.28 34.43 133.34 31.98 134.8 30.82 134.8 8.23"/><path class="cls-1" d="M199.56,4.36l2.37.79-5.13,3V32.69l-3.65,1.82,12.37,4.34L212,34.51l-2.13-.6,3.93-3V7.12l4.41-2.76L206.72.62Zm9.24,5v24l-7.6-2.43,1.6-1.15V5.39l8,2.79Z"/><polygon class="cls-1" points="151.09 4.36 153.19 5.16 147.8 8.2 147.8 33.28 144.42 35.1 156.91 39.44 163.46 35.1 151.85 31.36 151.43 31.52 153.8 29.78 153.8 5.39 160.56 7.74 159.8 8.2 159.8 33.92 165.8 29.78 165.8 7.12 169.97 4.36 158.36 0.62 151.09 4.36"/><polygon class="cls-1" points="176.66 11.33 172.48 18.33 184.8 18.33 184.8 32.91 178.01 19.72 174.08 25.42 182.47 42.66 185.92 36.34 185.2 35.22 189.8 31.88 189.8 17.46 194.27 11.33 176.66 11.33"/><polygon class="cls-1" points="191.28 4.68 179.66 0.94 172.37 4.68 184.78 9.02 191.28 4.68"/><polygon class="cls-1" points="104.3 22.33 117.54 22.33 120.68 15.33 107.44 15.33 104.3 22.33"/></g></g></svg>